<?xml version="1.0" standalone="no"?>
<!DOCTYPE svg PUBLIC "-//W3C//DTD SVG 1.0//EN" "http://www.w3.org/TR/2001/REC-SVG-20010904/DTD/svg10.dtd">
<svg xmlns="http://www.w3.org/2000/svg" xmlns:xlink="http://www.w3.org/1999/xlink" id="body_1" width="80" height="70">

<g transform="matrix(0.8695652 0 0 0.8695652 -0 0.2173913)">
    <path d="M45.9192 31.2107C 54.524 31.2107 61.5246 24.2102 61.5246 15.6054C 61.5246 7.00053 54.524 0 45.9192 0C 37.3144 0 30.3138 7.00053 30.3138 15.6054C 30.3138 24.2102 37.3144 31.2107 45.9192 31.2107zM45.9192 5.38116C 51.5569 5.38116 56.1434 9.9677 56.1434 15.6054C 56.1434 21.243 51.5569 25.8296 45.9192 25.8296C 40.2815 25.8296 35.695 21.243 35.695 15.6054C 35.695 9.9677 40.2815 5.38116 45.9192 5.38116z" stroke="none" fill="#2352DE" fill-rule="nonzero" />
    <path d="M77.4887 31.2104C 82.9285 31.2104 87.3541 26.7848 87.3541 21.3449C 87.3541 15.9051 82.9285 11.4795 77.4887 11.4795C 72.0489 11.4795 67.6232 15.9051 67.6232 21.3449C 67.6232 26.7848 72.0489 31.2104 77.4887 31.2104zM77.4887 16.8606C 79.9613 16.8606 81.973 18.8723 81.973 21.3449C 81.973 23.8176 79.9613 25.8292 77.4887 25.8292C 75.016 25.8292 73.0044 23.8176 73.0044 21.3449C 73.0044 18.8723 75.016 16.8606 77.4887 16.8606z" stroke="none" fill="#2352DE" fill-rule="nonzero" />
    <path d="M79.6591 37.3091L75.4976 37.3091C 70.5938 37.3091 66.3606 40.2063 64.4317 44.3677C 60.4602 40.0323 54.7556 37.3091 48.4267 37.3091L48.4267 37.3091L43.412 37.3091C 37.083 37.3091 31.3784 40.0323 27.407 44.3677C 25.4778 40.2063 21.2446 37.3091 16.3408 37.3091L16.3408 37.3091L12.1794 37.3091C 5.46367 37.3091 0 42.7397 0 49.4149L0 49.4149L0 69.0041C 0 71.902 2.36663 74.2597 5.27569 74.2597L5.27569 74.2597L21.7289 74.2597C 22.0048 77.4705 24.7047 79.9996 27.986 79.9996L27.986 79.9996L63.8526 79.9996C 67.1337 79.9996 69.8336 77.4705 70.1097 74.2597L70.1097 74.2597L86.3749 74.2597C 89.3877 74.2597 91.8386 71.8184 91.8386 68.8176L91.8386 68.8176L91.8386 49.4149C 91.8384 42.7397 86.3748 37.3091 79.6591 37.3091zM5.38116 49.4149C 5.38116 45.7069 8.43084 42.6902 12.1794 42.6902L12.1794 42.6902L16.3408 42.6902C 20.0893 42.6902 23.139 45.7069 23.139 49.4149L23.139 49.4149L23.139 51.2572C 21.3297 55.9682 21.704 58.7916 21.704 68.8785L21.704 68.8785L5.38116 68.8785L5.38116 49.4149zM64.7533 73.7178C 64.7533 74.2145 64.3493 74.6184 63.8526 74.6184L63.8526 74.6184L27.9858 74.6184C 27.4891 74.6184 27.0852 74.2143 27.0852 73.7178L27.0852 73.7178L27.0852 59.017C 27.0852 50.0144 34.4093 42.6902 43.4118 42.6902L43.4118 42.6902L48.4265 42.6902C 57.4291 42.6902 64.7533 50.0144 64.7533 59.0169L64.7533 59.0169L64.7533 73.7178zM86.4573 68.8176C 86.4573 68.9103 87.4603 68.8785 70.1344 68.8785C 70.1344 58.7169 70.5059 55.9605 68.6994 51.2572L68.6994 51.2572L68.6994 49.4149C 68.6994 45.7069 71.7491 42.6902 75.4976 42.6902L75.4976 42.6902L79.6591 42.6902C 83.4076 42.6902 86.4573 45.7069 86.4573 49.4149L86.4573 49.4149L86.4573 68.8176z" stroke="none" fill="#2352DE" fill-rule="nonzero" />
    <path d="M14.3497 31.2104C 19.7896 31.2104 24.2152 26.7848 24.2152 21.3449C 24.2152 15.9051 19.7896 11.4795 14.3497 11.4795C 8.90993 11.4795 4.48428 15.9051 4.48428 21.3449C 4.48428 26.7848 8.90993 31.2104 14.3497 31.2104zM14.3497 16.8606C 16.8224 16.8606 18.834 18.8723 18.834 21.3449C 18.834 23.8176 16.8224 25.8292 14.3497 25.8292C 11.8771 25.8292 9.86544 23.8176 9.86544 21.3449C 9.86544 18.8723 11.8771 16.8606 14.3497 16.8606z" stroke="none" fill="#2352DE" fill-rule="nonzero" />
</g>
</svg>