<svg width="80" height="81" viewBox="0 0 80 81" fill="none" xmlns="http://www.w3.org/2000/svg">
<path d="M49.0917 15.4886C52.1811 12.9931 52.8805 10.3253 52.923 8.52669C53.0269 4.15103 49.5717 0.948973 49.1773 0.598473C48.2003 -0.270476 46.7038 -0.18289 45.8347 0.794207C44.9658 1.7713 45.0534 3.26764 46.0305 4.13674C46.0526 4.15652 48.2416 6.20458 48.1892 8.41447C48.1612 9.59185 47.4831 10.701 46.1162 11.8052C43.0268 14.3008 42.3274 16.9685 42.2848 18.7671C42.1808 23.1428 45.6362 26.3449 46.0305 26.6955C46.4827 27.0977 47.0471 27.2957 47.6092 27.2957C48.2615 27.2957 48.9109 27.0289 49.3777 26.5039C50.2466 25.5268 50.1638 24.0345 49.1867 23.1656C48.5653 22.6005 46.9645 20.7259 47.019 18.8616C47.0534 17.6908 47.7313 16.5874 49.0917 15.4886Z" fill="#2352DE"/>
<path d="M34.0695 15.4886C37.1589 12.9931 37.8583 10.3253 37.9008 8.52669C38.0048 4.15103 34.5495 0.948973 34.1551 0.598473C33.1783 -0.270476 31.6816 -0.18289 30.8125 0.794207C29.9436 1.7713 30.0312 3.26764 31.0083 4.13674C31.0304 4.15652 33.2194 6.20458 33.167 8.41447C33.1391 9.59185 32.461 10.701 31.094 11.8052C28.0046 14.3008 27.3052 16.9685 27.2627 18.7671C27.1587 23.1428 30.614 26.3449 31.0083 26.6955C31.4605 27.0977 32.0249 27.2957 32.587 27.2957C33.2394 27.2957 33.8887 27.0289 34.3555 26.5039C35.2245 25.5268 35.1416 24.0345 34.1645 23.1656C33.5431 22.6005 31.9424 20.7259 31.9968 18.8616C32.0312 17.6908 32.7091 16.5874 34.0695 15.4886Z" fill="#2352DE"/>
<path d="M67.9642 38.6362H65.1621V36.8999C65.1621 35.5924 64.1021 34.5322 62.7945 34.5322H2.36764C1.06013 34.5322 0 35.5922 0 36.8999V49.3954C0 60.4367 6.11137 70.1453 15.2865 75.63H2.36905C1.06154 75.63 0.00141268 76.6899 0.00141268 77.9976C0.00141268 79.3052 1.06123 80.3652 2.36905 80.3652H62.7946C64.1021 80.3652 65.1622 79.3052 65.1622 77.9976C65.1622 76.6899 64.1023 75.63 62.7946 75.63H49.8757C55.0932 72.5111 59.3198 68.0268 61.995 62.7073H67.9644C74.6008 62.7073 80 57.3081 80 50.6717C80 44.0353 74.6006 38.6362 67.9642 38.6362ZM60.427 49.3954C60.4268 63.8611 47.9352 75.63 32.581 75.63C17.2269 75.63 4.73527 63.8611 4.73527 49.3954V39.2675H60.4268V49.3954H60.427ZM67.9642 57.9722H63.8901C64.7174 55.2475 65.1621 52.3699 65.1621 49.3954V43.3711H67.9642C71.9897 43.3711 75.2647 46.6462 75.2647 50.6717C75.2647 54.6972 71.9897 57.9722 67.9642 57.9722Z" fill="#2352DE"/>
<path d="M19.0474 15.4886C22.1367 12.9931 22.8361 10.3253 22.8787 8.52669C22.9826 4.15103 19.5273 0.948973 19.1329 0.598473C18.156 -0.270476 16.6595 -0.18289 15.7904 0.794207C14.9214 1.77115 15.009 3.26764 15.9861 4.13674C16.0082 4.15652 18.1972 6.20458 18.1448 8.41447C18.1169 9.59185 17.4388 10.701 16.0718 11.8052C12.9824 14.3008 12.283 16.9685 12.2405 18.7671C12.1367 23.1427 15.592 26.3447 15.9863 26.6954C16.4374 27.0966 16.9991 27.2939 17.5589 27.2939C18.2114 27.2939 18.861 27.0256 19.3289 26.4996C20.1979 25.5225 20.1103 24.0262 19.1332 23.1571C19.1111 23.1373 16.9221 21.0893 16.9745 18.8794C17.0021 17.702 17.6802 16.5927 19.0474 15.4886Z" fill="#2352DE"/>
</svg>
