<svg width="80" height="80" viewBox="0 0 80 80" fill="none" xmlns="http://www.w3.org/2000/svg">
<path d="M71.4062 0H27.6562C22.9177 0 19.0625 3.85516 19.0625 8.59375V28.125H8.59375C3.85516 28.125 0 31.9802 0 36.7188V61.7188C0 66.4573 3.85516 70.3125 8.59375 70.3125H22.9644L28.5186 78.6438C28.9533 79.2958 29.6852 79.6875 30.4688 79.6875C31.2523 79.6875 31.9842 79.2958 32.4189 78.6438L37.9731 70.3125H52.3438C57.0823 70.3125 60.9375 66.4573 60.9375 61.7188V42.1875H71.4062C76.1448 42.1875 80 38.3323 80 33.5938V8.59375C80 3.85516 76.1448 0 71.4062 0V0ZM56.25 61.7188C56.25 63.8727 54.4977 65.625 52.3438 65.625H36.7188C35.9352 65.625 35.2033 66.0167 34.7686 66.6687L30.4688 73.1184L26.1689 66.6687C25.7342 66.0167 25.0023 65.625 24.2188 65.625H8.59375C6.43984 65.625 4.6875 63.8727 4.6875 61.7188V36.7188C4.6875 34.5648 6.43984 32.8125 8.59375 32.8125H19.0625V33.5938C19.0625 35 19.4042 36.327 20.0055 37.5H11.7188C10.4244 37.5 9.375 38.5494 9.375 39.8438C9.375 41.1381 10.4244 42.1875 11.7188 42.1875H42.027L45.152 46.875H11.7188C10.4244 46.875 9.375 47.9244 9.375 49.2188C9.375 50.5131 10.4244 51.5625 11.7188 51.5625H49.5312C50.315 51.5625 51.0467 51.1708 51.4813 50.5188L56.25 43.3658V61.7188ZM75.3125 33.5938C75.3125 35.7477 73.5602 37.5 71.4062 37.5H55.7812C54.9975 37.5 54.2658 37.8917 53.8312 38.5437L49.5312 44.9934L45.2313 38.5437C44.7967 37.8917 44.0648 37.5 43.2812 37.5H27.6562C25.5023 37.5 23.75 35.7477 23.75 33.5938V8.59375C23.75 6.43984 25.5023 4.6875 27.6562 4.6875H71.4062C73.5602 4.6875 75.3125 6.43984 75.3125 8.59375V33.5938Z" fill="#2352DE"/>
<path d="M49.2188 56.25H11.7188C10.4244 56.25 9.375 57.2994 9.375 58.5937C9.375 59.8881 10.4244 60.9375 11.7188 60.9375H49.2188C50.5131 60.9375 51.5625 59.8881 51.5625 58.5937C51.5625 57.2994 50.5131 56.25 49.2188 56.25Z" fill="#2352DE"/>
<path d="M60.8058 16.3187L54.4675 15.3977L51.633 9.65406C51.2381 8.85406 50.4235 8.34766 49.5313 8.34766C48.6391 8.34766 47.8244 8.85406 47.4296 9.65406L44.595 15.3977L38.2567 16.3187C37.3739 16.4469 36.6403 17.0653 36.3647 17.9139C36.0889 18.7623 36.3189 19.6937 36.9577 20.3164L41.5441 24.7869L40.4613 31.0995C40.3105 31.9789 40.6721 32.8675 41.3938 33.392C42.1153 33.9161 43.0721 33.9855 43.8621 33.5705L49.5313 30.5898L55.2003 33.5705C55.5433 33.7506 55.9177 33.8397 56.2908 33.8397C56.7767 33.8397 57.2605 33.6887 57.6686 33.3922C58.3903 32.8678 58.7519 31.9791 58.6011 31.0997L57.5183 24.787L62.1047 20.3166C62.7436 19.6939 62.9736 18.7625 62.6978 17.9141C62.4222 17.0655 61.6888 16.447 60.8058 16.3187V16.3187ZM53.3641 22.2905C52.8116 22.8289 52.5595 23.6047 52.69 24.365L53.1783 27.2114L50.622 25.8673C50.2805 25.688 49.906 25.5981 49.5314 25.5981C49.1569 25.5981 48.7822 25.6878 48.4408 25.8673L45.8846 27.2114L46.3728 24.365C46.5033 23.6047 46.2513 22.8289 45.6988 22.2905L43.6308 20.2747L46.4889 19.8594C47.2524 19.7484 47.9122 19.2691 48.2536 18.5773L49.5317 15.9875L50.8099 18.5773C51.1513 19.2691 51.8111 19.7484 52.5745 19.8594L55.4327 20.2747L53.3641 22.2905Z" fill="#2352DE"/>
</svg>
