<?xml version="1.0" standalone="no"?>
<!DOCTYPE svg PUBLIC "-//W3C//DTD SVG 1.0//EN" "http://www.w3.org/TR/2001/REC-SVG-20010904/DTD/svg10.dtd">
<svg xmlns="http://www.w3.org/2000/svg" xmlns:xlink="http://www.w3.org/1999/xlink" id="body_1" width="80" height="65">

<g transform="matrix(0.8125 0 0 0.8125 0.18750072 -0)">
    <path d="M89.5656 11.5023L69.0856 11.5023L69.0856 7.83762C 69.0856 3.51603 65.5701 0 61.2482 0L61.2482 0L35.9004 0C 31.5791 0 28.063 3.51576 28.063 7.83762L28.063 7.83762L28.063 11.5023L7.58331 11.5023C 3.40185 11.5023 0 14.9038 0 19.085L0 19.085L0 72.4169C 0 76.5981 3.40185 80 7.58331 80L7.58331 80L89.5653 80C 93.7468 80 97.1486 76.5981 97.1486 72.4169L97.1486 72.4169L97.1486 19.085C 97.1489 14.9041 93.7473 11.5023 89.5656 11.5023zM34.6858 7.83762C 34.6858 7.16768 35.231 6.62252 35.9007 6.62252L35.9007 6.62252L61.2485 6.62252C 61.9181 6.62252 62.4633 7.16768 62.4633 7.83762L62.4633 7.83762L62.4633 11.5023L34.6858 11.5023L34.6858 7.83762zM7.58358 18.1248L89.5656 18.1248C 90.0954 18.1248 90.5264 18.5555 90.5264 19.085L90.5264 19.085L90.5264 36.462C 80.2646 40.2686 64.7862 42.5171 48.5465 42.5171C 32.3425 42.5171 16.8853 40.2763 6.62252 36.4824L6.62252 36.4824L6.62252 19.085C 6.62278 18.5555 7.05377 18.1248 7.58358 18.1248zM89.5656 73.3775L7.58358 73.3775C 7.05377 73.3775 6.62278 72.9468 6.62278 72.4169L6.62278 72.4169L6.62278 43.4985C 16.0156 46.5971 28.365 48.5338 41.8233 49.0191C 41.8225 49.0575 41.8177 49.0946 41.8177 49.1335L41.8177 49.1335L41.8177 50.5939C 41.8177 53.3317 44.045 55.5589 46.783 55.5589L46.783 55.5589L50.3664 55.5589C 53.1044 55.5589 55.3317 53.3317 55.3317 50.5939L55.3317 50.5939L55.3317 49.1335C 55.3317 49.0946 55.3264 49.0564 55.3261 49.0175C 68.7928 48.5279 81.1404 46.5857 90.5269 43.4811L90.5269 43.4811L90.5269 72.4172C 90.5264 72.9468 90.0954 73.3775 89.5656 73.3775z" stroke="none" fill="#2352DE" fill-rule="nonzero" />
</g>
</svg>